<?xml version="1.0" encoding="UTF-8"?>
<svg xmlns="http://www.w3.org/2000/svg" width="1136" height="417" viewBox="0 0 1136 417" fill="none"><path d="M10.753 275.707C-13.0758 223.132 4.323 163.749 54.6281 141.055C109.85 116.092 160.155 145.594 183.984 198.547L186.254 203.842L34.2035 273.059C53.8717 311.638 95.0992 332.442 138.218 313.151C161.29 302.561 178.311 284.406 186.254 260.955L202.139 269.276C192.684 296.131 174.528 317.312 144.27 330.929C91.6951 354.001 36.0947 331.685 10.753 275.707ZM62.1928 158.076C19.4524 177.744 14.9136 225.023 27.7735 257.173L159.777 197.034C145.404 166.397 107.581 137.273 62.1928 158.076Z" fill="#151e2f"></path><path d="M241.098 88.8585C241.098 79.7809 249.041 72.5944 257.74 72.5944C266.818 72.5944 274.383 79.7809 274.383 88.8585C274.383 97.9361 266.818 105.501 257.74 105.501C249.041 105.123 241.098 97.9361 241.098 88.8585ZM247.15 336.224V136.516H268.709V336.224H247.15Z" fill="#151e2f"></path><path d="M335.656 386.907L348.138 369.509C365.537 390.312 384.449 397.498 414.707 397.498C450.64 397.498 482.411 379.343 482.411 334.333V302.561C468.417 323.364 442.697 340.006 412.816 340.006C359.863 340.006 323.931 299.913 323.931 235.992C323.931 172.827 359.863 131.599 412.816 131.599C441.184 131.599 466.147 145.972 482.411 168.666V136.516H504.349V334.333C504.349 395.229 463.121 416.788 414.707 416.788C380.666 417.166 359.485 411.114 335.656 386.907ZM482.411 284.784V187.578C470.686 168.288 444.21 151.267 416.599 151.267C372.345 151.267 346.625 187.956 346.625 236.37C346.625 284.784 372.345 321.095 416.599 321.095C444.588 321.095 471.064 304.074 482.411 284.784Z" fill="#151e2f"></path><path d="M568.27 275.707C544.442 223.132 561.841 163.749 612.146 141.055C667.368 116.092 717.673 145.594 741.502 198.547L743.771 203.842L591.721 273.059C611.389 311.638 652.617 332.442 695.735 313.151C718.808 302.561 735.828 284.406 743.771 260.955L759.657 269.276C750.201 296.131 732.046 317.312 701.787 330.929C649.213 354.001 593.612 331.685 568.27 275.707ZM619.71 158.076C576.97 177.744 572.431 225.023 585.291 257.173L717.295 197.034C702.922 166.397 665.098 137.273 619.71 158.076Z" fill="#151e2f"></path><path d="M940.075 336.224V201.194C940.075 162.614 920.785 151.267 891.661 151.267C865.941 151.267 839.464 167.531 826.983 185.686V336.602H805.045V136.894H826.604V167.153C840.977 149.754 869.723 131.977 898.469 131.977C938.94 131.977 961.256 151.645 961.256 197.033V336.602H940.075V336.224Z" fill="#151e2f"></path><path id="last" d="M1059.22 0.729919V80.5373H1136V100.962H1059.22V181.526H1037.28V100.962H960.499V80.5373H1037.28V0.729919H1059.22Z" fill="#F6B02F"></path></svg>


